<svg xmlns="http://www.w3.org/2000/svg" width="109" height="19">
    <path fill="#FFF" fill-rule="evenodd" d="M104.634 2.306v15.749h-2.128V2.306h-3.783V.556h9.694v1.75h-3.783zm-8.403 9.262c-.37.492-.835.842-1.395 1.05-.559.209-1.226.313-1.998.313-.362 0-.772-.025-1.229-.075-.458-.05-.836-.109-1.135-.175v5.374h-2.128V.806a10.653 10.653 0 0 1 1.809-.387 16.137 16.137 0 0 1 1.974-.112c.946 0 1.75.104 2.412.312.662.209 1.197.554 1.607 1.037.41.484.71 1.125.899 1.925.189.8.284 1.792.284 2.975 0 1.217-.091 2.233-.272 3.05-.182.817-.457 1.471-.828 1.962zm-1.206-7.262c-.118-.6-.303-1.075-.555-1.425a2.026 2.026 0 0 0-.958-.737c-.386-.142-.847-.213-1.383-.213h-1.655v9.25h1.655c.536 0 .997-.071 1.383-.213a2.02 2.02 0 0 0 .958-.737c.252-.35.437-.825.555-1.425.119-.6.178-1.35.178-2.25 0-.9-.059-1.65-.178-2.25zm-11.98 9.25h-4.729l-1.064 4.499h-2.128L79.144.556h3.073l4.02 17.499h-2.128l-1.064-4.499zm-2.317-10.5h-.095l-1.962 8.75h4.019l-1.962-8.75zm-10.401 2h-.118l-3.428 10.749h-2.129L61.224 5.056h-.118l-.709 12.999h-2.128L59.214.556h2.601l3.854 12h.095l3.854-12h2.6l.946 17.499h-2.128l-.709-12.999zM54.762 16.43c-.441.684-.973 1.167-1.596 1.45-.623.283-1.336.425-2.14.425s-1.517-.142-2.14-.425c-.622-.283-1.154-.766-1.596-1.45-.441-.683-.776-1.603-1.004-2.762-.229-1.158-.343-2.612-.343-4.362s.114-3.204.343-4.362c.228-1.158.563-2.079 1.004-2.763.442-.683.974-1.166 1.596-1.45.623-.283 1.336-.424 2.14-.424s1.517.141 2.14.424c.623.284 1.155.767 1.596 1.45.441.684.776 1.605 1.005 2.763.228 1.158.343 2.612.343 4.362s-.115 3.204-.343 4.362c-.229 1.159-.564 2.079-1.005 2.762zM53.734 5.606c-.166-.966-.383-1.733-.651-2.3-.268-.566-.583-.958-.945-1.175a2.149 2.149 0 0 0-1.112-.324c-.378 0-.748.108-1.111.324-.363.217-.678.609-.946 1.175-.268.567-.484 1.334-.65 2.3-.165.967-.248 2.2-.248 3.7s.083 2.733.248 3.7c.166.966.382 1.733.65 2.299.268.567.583.959.946 1.175a2.14 2.14 0 0 0 1.111.325 2.14 2.14 0 0 0 1.112-.325c.362-.216.677-.608.945-1.175.268-.566.485-1.333.651-2.299.165-.967.248-2.2.248-3.7s-.083-2.733-.248-3.7zm-12.52 4.45h-4.965v7.999h-2.128V.556h2.128v7.75h4.965V.556h2.128v17.499h-2.128v-7.999zm-11.285 7.999l-2.956-7.499-2.955 7.499H21.89l3.546-8.999-3.192-8.5h2.128l2.601 7 2.601-7h2.128l-3.192 8.5 3.547 8.999h-2.128zM12.12.556h8.039v1.75h-5.911v5.75h5.202v1.75h-5.202v6.499h5.911v1.75H12.12V.556zM6.332 18.055H4.204V2.306H.421V.556h9.694v1.75H6.332v15.749z"/>
</svg>
